<svg width="26" height="30" viewBox="0 0 26 30" fill="none" xmlns="http://www.w3.org/2000/svg">
<path fill-rule="evenodd" clip-rule="evenodd" d="M20.796 14.863C21.6015 14.0743 22.0798 13.0784 21.989 11.7983C21.6415 6.78642 15.1208 3.39608 13.6368 4.55655C12.2887 5.60698 14.0272 9.10193 14.9479 10.9527C15.0441 11.1461 15.1314 11.3216 15.2053 11.4745C15.5644 12.2196 16.3312 14.0476 16.5703 15.9784C14.5793 16.5553 12.3108 16.8536 10.5526 17.0848C10.3122 17.1164 10.0814 17.1468 9.86206 17.1764C4.74053 17.8627 3.08615 19.7302 4.46527 21.6869C5.84817 23.6458 10.7341 26.0149 14.975 25.6272C18.3642 25.3176 20.1592 23.477 20.6327 22.597C22.0018 20.234 21.637 17.4069 20.796 14.863ZM8.27623 21.1165C6.83248 20.0167 8.21739 18.5245 11.1044 18.0312C11.3803 17.9841 11.7061 17.935 12.0693 17.8801C13.3175 17.6917 15.0085 17.4364 16.6411 16.9697C16.6858 19.4243 15.6354 21.7849 11.6122 22.093C10.984 22.1356 9.43119 21.9963 8.27623 21.1165ZM20.9022 10.5942C21.4463 11.9897 21.1948 13.0702 20.4564 13.9137C20.1153 13.0187 19.7326 12.1747 19.3693 11.4178C18.8747 10.1012 18.9503 7.66246 20.5013 9.81445C20.6812 10.1073 20.8164 10.3819 20.9022 10.5942Z" fill="black"/>
</svg>
